<svg width="23" height="30" viewBox="0 0 23 30" fill="none" xmlns="http://www.w3.org/2000/svg">
<path d="M21.375 12.247H22.3125V14.5833C22.3125 16.002 22.0397 17.3611 21.494 18.6607C20.9583 19.9603 20.2292 21.0913 19.3065 22.0536C18.3839 23.006 17.2877 23.7798 16.0179 24.375C14.748 24.9603 13.4087 25.2827 12 25.3423V29.122H11.0625V25.3423C9.65377 25.2827 8.31449 24.9603 7.04464 24.375C5.7748 23.7798 4.67857 23.006 3.75595 22.0536C2.83333 21.0913 2.09921 19.9603 1.55357 18.6607C1.01786 17.3611 0.75 16.002 0.75 14.5833V12.247H1.6875V14.5833C1.6875 15.9226 1.94544 17.2024 2.46131 18.4226C2.9871 19.6329 3.68651 20.6796 4.55952 21.5625C5.44246 22.4355 6.48909 23.1349 7.69941 23.6607C8.91964 24.1766 10.1944 24.4345 11.5238 24.4345C12.8631 24.4345 14.1379 24.1766 15.3482 23.6607C16.5685 23.1349 17.6151 22.4355 18.4881 21.5625C19.371 20.6796 20.0704 19.6329 20.5863 18.4226C21.1121 17.2024 21.375 15.9226 21.375 14.5833V12.247ZM11.5238 20.6845C10.7004 20.6845 9.91171 20.5258 9.15774 20.2083C8.41369 19.881 7.76885 19.4444 7.22321 18.8988C6.67758 18.3532 6.24107 17.7034 5.91369 16.9494C5.59623 16.1954 5.4375 15.4067 5.4375 14.5833V7.08333C5.4375 5.99206 5.71032 4.98016 6.25595 4.04762C6.80159 3.10516 7.54068 2.36111 8.47322 1.81547C9.41568 1.26984 10.4325 0.997022 11.5238 0.997022C12.625 0.997022 13.6419 1.26984 14.5744 1.81547C15.5169 2.36111 16.2609 3.10516 16.8065 4.04762C17.3522 4.98016 17.625 5.99206 17.625 7.08333V14.5833C17.625 15.6845 17.3522 16.7063 16.8065 17.6488C16.2609 18.5813 15.5169 19.3204 14.5744 19.8661C13.6419 20.4117 12.625 20.6845 11.5238 20.6845ZM6.375 7.08333V14.5833C6.375 15.5159 6.60318 16.379 7.05952 17.1726C7.52579 17.9663 8.15079 18.5962 8.93452 19.0625C9.72818 19.5188 10.5913 19.747 11.5238 19.747C12.2282 19.747 12.8978 19.6131 13.5327 19.3452C14.1677 19.0675 14.7133 18.7004 15.1696 18.244C15.6359 17.7778 16.003 17.2272 16.2708 16.5923C16.5486 15.9573 16.6875 15.2877 16.6875 14.5833V7.08333C16.6875 6.16071 16.4544 5.30258 15.9881 4.50893C15.5317 3.71528 14.9067 3.09028 14.1131 2.63393C13.3194 2.16766 12.4563 1.93452 11.5238 1.93452C10.5913 1.93452 9.72818 2.16766 8.93452 2.63393C8.15079 3.09028 7.52579 3.71528 7.05952 4.50893C6.60318 5.30258 6.375 6.16071 6.375 7.08333Z" fill="#BC3033"/>
</svg>
