<svg width="18" height="4" viewBox="0 0 18 4" fill="none" xmlns="http://www.w3.org/2000/svg">
<path d="M0.440476 0.940476C0.734127 0.646824 1.0873 0.499999 1.5 0.499999C1.9127 0.499999 2.26587 0.646824 2.55952 0.940476C2.85317 1.23413 3 1.5873 3 2C3 2.26984 2.93254 2.51984 2.79762 2.75C2.6627 2.98016 2.48016 3.1627 2.25 3.29762C2.01984 3.43254 1.76984 3.5 1.5 3.5C1.0873 3.5 0.734127 3.35317 0.440476 3.05952C0.146825 2.76587 0 2.4127 0 2C0 1.5873 0.146825 1.23413 0.440476 0.940476ZM7.94048 0.940476C8.23413 0.646824 8.5873 0.499999 9 0.499999C9.4127 0.499999 9.76587 0.646824 10.0595 0.940476C10.3532 1.23413 10.5 1.5873 10.5 2C10.5 2.4127 10.3532 2.76587 10.0595 3.05952C9.76587 3.35317 9.4127 3.5 9 3.5C8.5873 3.5 8.23413 3.35317 7.94048 3.05952C7.64683 2.76587 7.5 2.4127 7.5 2C7.5 1.5873 7.64683 1.23413 7.94048 0.940476ZM15.4405 0.940476C15.7341 0.646824 16.0873 0.499999 16.5 0.499999C16.9127 0.499999 17.2659 0.646824 17.5595 0.940476C17.8532 1.23413 18 1.5873 18 2C18 2.4127 17.8532 2.76587 17.5595 3.05952C17.2659 3.35317 16.9127 3.5 16.5 3.5C16.0873 3.5 15.7341 3.35317 15.4405 3.05952C15.1468 2.76587 15 2.4127 15 2C15 1.5873 15.1468 1.23413 15.4405 0.940476Z" fill="#B3B3B3"/>
</svg>
